<?xml version="1.0" encoding="utf-8"?>
<!-- Generator: Adobe Illustrator 22.1.0, SVG Export Plug-In . SVG Version: 6.00 Build 0)  -->
<svg version="1.1" id="Capa_1" xmlns="http://www.w3.org/2000/svg" xmlns:xlink="http://www.w3.org/1999/xlink" x="0px" y="0px"
	 viewBox="0 0 660.7 658.5" style="enable-background:new 0 0 660.7 658.5;" xml:space="preserve">
<style type="text/css">
	.st0{fill:#0000FF;}
	.st1{fill:none;stroke:#0000FF;stroke-width:11;stroke-miterlimit:10;}
	.st2{fill:none;stroke:#FFFFFF;stroke-width:11;stroke-miterlimit:10;}
</style>
<g>
	<path class="st0" d="M461.7,333.8h-10.8c-5.2,0-9.4-4.2-9.4-9.4v-31.3c0-9.4-7.6-17-17-17s-17,7.6-17,17v31.3
		c0,5.2-4.2,9.4-9.4,9.4h-41.3c-5.2,0-9.4-4.2-9.4-9.4v-31.3c0-9.4-7.6-17-17-17s-17,7.6-17,17v31.3c0,5.2-4.2,9.4-9.4,9.4h-41.3
		c-5.2,0-9.4-4.2-9.4-9.4v-31.3c0-9.4-7.6-17-17-17s-17,7.6-17,17v31.3c0,5.2-4.2,9.4-9.4,9.4H199l-40.6,227.8
		c-0.6,3.4,0.3,6.9,2.5,9.5c2.2,2.7,5.5,4.2,9,4.2h92.8v-55.1c0-37.4,30.3-67.7,67.7-67.7s67.7,30.3,67.7,67.7v55.1h92.8
		c3.5,0,6.7-1.5,9-4.2c2.2-2.6,3.1-6.1,2.5-9.5L461.7,333.8z"/>
	<path class="st0" d="M469.3,314.9c1.3,0,2.3-1,2.3-2.3v-76.8H189.1v76.8c0,1.3,1,2.3,2.3,2.3h9V293c0-19.8,16.1-35.9,35.9-35.9
		s35.9,16.1,35.9,35.9v21.9h22.5V293c0-19.8,16.1-35.9,35.9-35.9s35.9,16.1,35.9,35.9v21.9H389V293c0-19.8,16.1-35.9,35.9-35.9
		s35.9,16.1,35.9,35.9v21.9H469.3L469.3,314.9z"/>
	<path class="st0" d="M170.2,217.3c2.3,1.1,4.9,1.8,7.6,1.8h305c2.7,0,5.3-0.7,7.6-1.8c6.2-2.9,10.6-9.1,10.6-16.4
		c0-60.8,0-46.9,0-108.9c0-5.3-4.3-9.6-9.6-9.6h-41.8c-5.3,0-9.6,4.3-9.6,9.6v32c0,3.7-3,6.8-6.8,6.8h-18.9c-3.7,0-6.8-3-6.8-6.8V92
		c0-5.3-4.3-9.6-9.6-9.6h-41.8c-5.3,0-9.6,4.3-9.6,9.6v32c0,3.7-3,6.8-6.8,6.8h-18.9c-3.7,0-6.8-3-6.8-6.8V92c0-5.3-4.3-9.6-9.6-9.6
		h-41.8c-5.3,0-9.6,4.3-9.6,9.6v32c0,3.7-3,6.8-6.8,6.8h-18.9c-3.7,0-6.8-3-6.8-6.8V92c0-5.3-4.3-9.6-9.6-9.6h-41.8
		c-5.3,0-9.6,4.3-9.6,9.6c0,12.1,0,22.3,0,31.2c0,34.7,0,46.1,0,45.8c0,9,0,19.5,0,31.9C159.6,208.2,164,214.4,170.2,217.3z"/>
</g>
<circle class="st1" cx="330.3" cy="328.8" r="316"/>
<line class="st2" x1="158.2" y1="179.4" x2="502.5" y2="179.4"/>
<path class="st1" d="M159.6,123.2"/>
<path class="st1" d="M195.3,354.3"/>
<g>
	<g>
		<g>
			<circle class="st0" cx="112.9" cy="346.1" r="1.7"/>
			<path class="st0" d="M151.4,298.4c-2.4,7.3-9,11.8-14.8,9.9c-5.7-1.9-8.4-9.4-6-16.7c2.4-7.3,9-11.8,14.8-9.9
				c2.3,0.8,4.2,2.5,5.5,4.9C152.5,290,152.7,294.3,151.4,298.4L151.4,298.4z M105.6,345.6c-2.2,5.2-12.8,30.6-17.7,48.3
				c-5.6,20.2-4.5,23.4-2.7,23.6l35-71.9c7.3-15.5,4.2-16.5,11.7-22.7c4.8-4,11.8-7.7,15.3-10.4c4.3-2.4,7.9-6.7,9.7-12.2
				c1.8-5.6,1.5-11.5-0.9-16.3c-1.9-3.8-5.1-6.6-8.9-7.9c-8.8-2.9-18.1,3.5-22.3,13.7c-2.6,6.5-1,24.4-2.7,30.8
				c-1.1,4.3-5.4,9.7-9.3,14.2C110.3,337.6,107.8,340.4,105.6,345.6z"/>
			<path class="st0" d="M75.3,286.6c1.2-2.5,3.1-4.2,5.5-4.9c5.7-1.9,12.4,2.6,14.8,9.9c2.4,7.3-0.3,14.8-6,16.7
				c-5.7,1.9-12.4-2.6-14.8-9.9C73.3,294.3,73.5,290,75.3,286.6L75.3,286.6z M113.1,334.7c-3.9-4.6-8.2-10-9.3-14.2
				c-1.7-6.3-0.1-24.2-2.7-30.8c-4.1-10.2-13.4-16.6-22.3-13.7c-3.8,1.2-7,4-8.9,7.9c-2.4,4.8-2.7,10.7-0.9,16.3
				c1.8,5.5,5.4,9.8,9.7,12.2c3.5,2.7,10.5,6.5,15.3,10.4c7.6,6.2,4.5,7.2,11.7,22.7l35,71.9c1.8-0.2,2.9-3.4-2.7-23.6
				c-4.9-17.7-15.6-43.1-17.7-48.3S115.8,337.6,113.1,334.7z"/>
		</g>
	</g>
</g>
<g>
	<g>
		<g>
			<circle class="st0" cx="546.3" cy="346.8" r="1.7"/>
			<path class="st0" d="M507.8,394.5c2.4-7.3,9-11.8,14.8-9.9c5.7,1.9,8.4,9.4,6,16.7c-2.4,7.3-9,11.8-14.8,9.9
				c-2.3-0.8-4.2-2.5-5.5-4.9C506.7,402.9,506.5,398.6,507.8,394.5L507.8,394.5z M553.6,347.2c2.2-5.2,12.8-30.6,17.7-48.3
				c5.6-20.2,4.5-23.4,2.7-23.6l-35,71.9c-7.3,15.5-4.2,16.5-11.7,22.7c-4.8,4-11.8,7.7-15.3,10.4c-4.3,2.4-7.9,6.7-9.7,12.2
				c-1.8,5.6-1.5,11.5,0.9,16.3c1.9,3.8,5.1,6.6,8.9,7.9c8.8,2.9,18.1-3.5,22.3-13.7c2.6-6.5,1-24.4,2.7-30.8
				c1.1-4.3,5.4-9.7,9.3-14.2C548.9,355.3,551.4,352.5,553.6,347.2z"/>
			<path class="st0" d="M583.9,406.3c-1.2,2.5-3.1,4.2-5.5,4.9c-5.7,1.9-12.4-2.6-14.8-9.9c-2.4-7.3,0.3-14.8,6-16.7
				c5.7-1.9,12.4,2.6,14.8,9.9C585.9,398.6,585.7,402.9,583.9,406.3L583.9,406.3z M546.1,358.2c3.9,4.6,8.2,10,9.3,14.2
				c1.7,6.3,0.1,24.2,2.7,30.8c4.1,10.2,13.4,16.6,22.3,13.7c3.8-1.2,7-4,8.9-7.9c2.4-4.8,2.7-10.7,0.9-16.3
				c-1.8-5.5-5.4-9.8-9.7-12.2c-3.5-2.7-10.5-6.5-15.3-10.4c-7.6-6.2-4.5-7.2-11.7-22.7l-35-71.9c-1.8,0.2-2.9,3.4,2.7,23.6
				c4.9,17.7,15.6,43.1,17.7,48.3C540.9,352.5,543.4,355.3,546.1,358.2z"/>
		</g>
	</g>
</g>
</svg>
